<svg xmlns="http://www.w3.org/2000/svg" width="512" height="512" viewBox="0 0 512 512" version="1.1">
	<path d="M 215.500 4.901 C 208.252 5.823, 204.739 6.949, 193.854 11.840 C 176.268 19.742, 169.734 24.702, 165.602 33.286 C 159.667 45.617, 157.363 75.760, 161.273 89.920 C 163.004 96.190, 162.997 96.527, 160.968 104.355 C 159.825 108.764, 158.627 115.185, 158.306 118.625 C 157.741 124.677, 157.905 125.263, 163.363 136.712 C 167.620 145.643, 169.723 151.726, 171.938 161.522 C 173.553 168.660, 175.587 176.198, 176.460 178.273 C 177.943 181.802, 177.931 182.085, 176.273 182.656 C 170.424 184.669, 156.210 191.385, 154.511 192.938 C 152.097 195.144, 129.946 210.698, 125 213.659 C 122.146 215.368, 119.285 215.851, 109.500 216.277 C 90.130 217.119, 78.745 222.186, 64.965 236.096 C 48.244 252.976, 36.241 277.674, 29.883 308.285 C 27.160 321.391, 27.171 321.409, 38.907 323.721 L 47.145 325.344 50.072 331.143 C 53.647 338.225, 53.714 340.553, 50.500 346.148 C 47.894 350.684, 38.553 378.019, 35.173 391 C 33.962 395.648, 33.566 398.929, 34.131 399.627 C 34.692 400.323, 34.302 404.349, 33.113 410.127 C 32.052 415.282, 30.730 422.260, 30.175 425.633 C 29.327 430.780, 28.198 433.071, 23.152 439.876 C 14.584 451.431, 14.245 453.261, 20.454 454.425 C 25.066 455.291, 25.567 456.417, 23.439 461.135 C 21.706 464.979, 21.710 465.152, 23.576 466.959 C 25.495 468.817, 38.751 473, 42.718 473 C 44.210 473, 45.699 471.423, 47.913 467.500 C 51.246 461.594, 54.222 460.365, 57.429 463.571 C 59.372 465.515, 59.372 465.865, 57.438 470.495 C 54.978 476.381, 55.925 477.360, 63.490 476.753 C 71.657 476.097, 73.554 477.233, 72.619 482.216 C 71.961 485.724, 71.991 485.760, 76.421 486.876 C 83.274 488.601, 90.407 488.319, 92.240 486.250 C 93.093 485.288, 95.383 479.714, 97.329 473.865 C 99.275 468.016, 104.307 455.915, 108.512 446.975 C 112.716 438.035, 116.628 429.546, 117.206 428.110 C 118.234 425.557, 118.317 425.631, 121.031 431.500 C 125.414 440.976, 133.694 466.825, 138.811 487 L 143.502 505.500 156.863 505.780 C 171.859 506.094, 173.364 505.596, 172.499 500.612 C 172.202 498.900, 169.482 483.810, 166.454 467.078 C 163.426 450.346, 161.121 436.171, 161.333 435.578 C 162.027 433.636, 163.766 441.586, 169.654 473.606 C 175.738 506.696, 176.042 507.586, 180.838 506.332 C 182.514 505.894, 183 505.010, 183 502.402 L 183 499.038 189.419 502.566 L 195.837 506.094 222.169 505.797 L 248.500 505.500 254.217 502.693 C 257.361 501.149, 262.897 497.857, 266.520 495.377 L 273.105 490.868 272.803 498.184 L 272.500 505.500 275.585 505.801 C 277.314 505.970, 279.169 505.501, 279.805 504.735 C 280.429 503.983, 281.635 495.747, 282.485 486.434 C 283.971 470.152, 288.729 434.938, 289.554 434.113 C 291.184 432.483, 290.870 439.791, 288.623 455.795 C 283.501 492.269, 282.763 504.311, 285.582 505.393 C 286.452 505.727, 299.966 506, 315.613 506 C 346.906 506, 346.519 506.082, 343.994 499.986 C 343.015 497.621, 343.018 495.308, 344.011 488.754 C 346.325 473.478, 347.935 466.588, 354.122 445.500 L 360.283 424.500 365.542 419.197 C 371.119 413.574, 373.878 409.797, 378.725 401.150 L 381.724 395.800 384.348 403.150 C 385.791 407.192, 388.372 414.444, 390.085 419.263 C 393.145 427.875, 397.379 436.650, 408.050 456.500 C 412.817 465.367, 413.487 467.350, 413.963 474 L 414.500 481.500 419.863 481.544 C 425.568 481.591, 427.443 482.935, 428.680 487.864 C 429.248 490.125, 429.538 490.197, 435.344 489.541 C 441.834 488.806, 447.306 486.932, 448.473 485.044 C 448.867 484.406, 447.995 482.079, 446.535 479.873 C 442.080 473.141, 442.776 472.575, 456.212 472 C 470.547 471.387, 471.098 471.011, 468.569 463.571 C 466.351 457.046, 466.904 455, 470.887 455 C 475.441 455, 476.923 455.929, 479.063 460.123 C 480.646 463.226, 481.597 464, 483.829 464 C 485.363 464, 487.467 463.379, 488.506 462.619 C 490.339 461.279, 490.342 461.052, 488.626 454.869 C 485.908 445.078, 481.580 436.903, 475.522 430.113 C 468.877 422.666, 466.477 418.179, 464.441 409.400 C 462.101 399.311, 463.233 398.433, 466.330 407.934 C 469.541 417.785, 474.224 425.896, 480.954 433.260 C 483.602 436.157, 487.219 441.221, 488.991 444.514 C 490.763 447.806, 492.670 451.063, 493.229 451.750 C 494.570 453.401, 498.153 453.340, 500.495 451.627 C 502.323 450.290, 502.315 450.116, 500.175 444.967 C 498.967 442.059, 494.689 434.689, 490.669 428.590 C 482.674 416.458, 479.573 409.643, 477.912 400.551 C 476.978 395.437, 477.048 394.438, 478.412 393.440 C 480.507 391.908, 480.434 390.405, 477.576 376.375 C 473.357 355.659, 470.884 346.673, 467.702 340.500 C 464.872 335.010, 464.605 333.655, 464.555 324.553 L 464.500 314.606 470.736 313.336 C 477.938 311.869, 482.837 309.588, 483.719 307.290 C 485.388 302.940, 477.222 276.442, 468.990 259.500 C 461.134 243.332, 454.177 233.079, 444.546 223.478 C 426.767 205.752, 411.306 199.680, 390.219 202.145 L 380.938 203.229 376.944 200.365 C 368.435 194.261, 348.576 183.218, 343 181.488 C 341.625 181.061, 339.142 179.679, 337.483 178.415 C 334.527 176.165, 317.765 170, 314.602 170 C 313.721 170, 313 169.568, 313 169.039 C 313 167.341, 308.658 163.901, 302.671 160.856 L 296.843 157.892 297.662 153.696 C 298.112 151.388, 298.332 144.875, 298.149 139.222 L 297.818 128.944 301.524 124.842 C 308.473 117.150, 312.683 104.283, 311.452 94.500 C 310.654 88.156, 307.216 80.454, 303.078 75.741 C 300.200 72.463, 299.653 70.800, 297.934 60.089 C 295.598 45.530, 293.209 38.862, 287.598 31.240 C 279.340 20.023, 269.736 13.554, 253.032 7.957 C 245.273 5.358, 241.762 4.761, 232.582 4.478 C 226.487 4.291, 218.800 4.481, 215.500 4.901 M 240.329 14.942 C 236.018 17.569, 232.608 23.740, 225.948 40.967 C 222.846 48.991, 219.792 56.521, 219.160 57.700 C 217.630 60.559, 213.158 64, 210.972 64 C 210.005 64, 208.928 64.746, 208.578 65.657 C 207.259 69.096, 205.717 86.681, 206.411 90.379 L 207.135 94.234 211.317 93.571 C 218.754 92.393, 238.975 87.064, 242.055 85.471 C 243.702 84.620, 245.804 84.053, 246.727 84.212 C 248.539 84.523, 250.455 79.455, 255.503 61 C 259.104 47.831, 261.789 42.433, 268.445 34.973 L 274.189 28.536 270.345 25.241 C 265.723 21.281, 251.872 14.358, 247 13.573 C 244.527 13.175, 242.569 13.577, 240.329 14.942 M 186.355 22.909 C 169.561 30.854, 164.296 42.400, 165.209 69.289 C 165.476 77.138, 166.200 84.504, 166.818 85.659 C 168.903 89.556, 180.720 92.832, 194.222 93.257 L 201.944 93.500 202.400 81.500 C 202.651 74.900, 203.166 68.487, 203.545 67.250 C 204.201 65.104, 203.976 65, 198.682 65 C 190.838 65, 188.238 63.791, 187.492 59.795 C 186.432 54.119, 190.231 30.380, 193.608 21.579 C 194.450 19.384, 193.398 19.577, 186.355 22.909 M 251.105 24.852 L 249.074 27.705 255.054 30.789 L 261.034 33.873 263.663 31.436 C 265.109 30.096, 266.676 29, 267.146 29 C 267.616 29, 268 28.618, 268 28.150 C 268 27.247, 256.316 21.992, 254.318 21.997 C 253.668 21.999, 252.222 23.284, 251.105 24.852 M 274.149 37.086 C 268.629 42.606, 265.475 49.447, 262.033 63.365 C 260.443 69.795, 258.379 77.352, 257.447 80.159 L 255.752 85.263 261.756 97.882 C 265.058 104.822, 268.151 111.523, 268.630 112.773 C 269.212 114.295, 269.508 111.485, 269.525 104.273 C 269.544 95.692, 269.994 92.310, 271.733 87.652 C 274.646 79.854, 279.223 72.890, 282.840 70.754 C 285.574 69.138, 285.730 68.737, 284.968 65.256 C 284.210 61.790, 283.672 55.226, 283.903 52.250 C 283.956 51.563, 284.436 51, 284.969 51 C 285.501 51, 285.738 51.563, 285.495 52.250 C 285.251 52.938, 285.378 56.645, 285.776 60.488 C 286.371 66.229, 286.838 67.541, 288.397 67.839 C 290.177 68.181, 290.251 67.716, 289.592 60.352 C 288.431 47.366, 283.170 33, 279.575 33 C 278.838 33, 276.396 34.839, 274.149 37.086 M 284.584 79.060 C 275.122 87.368, 273.454 111.039, 281.580 121.693 C 285.422 126.731, 286.370 125.639, 283.267 119.750 C 280.753 114.981, 280.500 113.538, 280.500 104 C 280.500 94.780, 280.816 92.830, 283.093 88 C 284.520 84.975, 287.193 81.037, 289.033 79.250 C 292.080 76.291, 292.187 76, 290.225 76 C 289.039 76, 286.501 77.377, 284.584 79.060 M 293.150 91.340 C 288.858 95.909, 287.692 105.921, 290.752 111.940 C 293.521 117.390, 294.687 116.814, 294.210 110.232 C 293.918 106.195, 294.433 102.263, 295.895 97.352 C 297.053 93.465, 298 89.995, 298 89.642 C 298 88.179, 295.198 89.160, 293.150 91.340 M 251.030 91.628 C 250.994 92.986, 253.853 100, 254.444 100 C 255.044 100, 253.373 94.475, 252.121 92.324 C 251.538 91.321, 251.047 91.008, 251.030 91.628 M 234 96.868 C 225.246 98.844, 224 99.478, 224 101.952 C 224 104.463, 226.106 105.125, 236 105.723 C 243.676 106.187, 244.679 106.038, 246.348 104.181 C 247.951 102.398, 248.041 101.653, 247.021 98.563 C 245.654 94.422, 245.130 94.354, 234 96.868 M 169.411 101.496 C 167.797 103.959, 167.795 104.224, 169.381 105.809 C 172.353 108.781, 187 106.777, 187 103.398 C 187 101.570, 184.038 100.457, 176.815 99.570 C 171.429 98.909, 171.039 99.010, 169.411 101.496 M 203.752 101.745 L 194.004 102.072 192.056 105.890 C 188.904 112.068, 176.081 116.618, 168.887 114.110 C 166.357 113.229, 165.454 113.257, 164.832 114.238 C 163.380 116.525, 163.946 124.403, 165.755 127.095 C 166.715 128.523, 169.193 132.222, 171.262 135.316 C 173.331 138.409, 176.590 144.378, 178.505 148.580 C 180.986 154.025, 182.399 156.061, 183.423 155.668 C 185.494 154.873, 216.235 153.119, 224.467 153.325 L 231.433 153.500 238.191 144.077 C 243.018 137.346, 247.314 132.770, 253.224 128.062 C 262.790 120.442, 263.393 118.799, 259.979 109.672 C 258.811 106.553, 257.646 104, 257.390 104 C 257.133 104, 255.103 105.748, 252.880 107.885 C 250.656 110.022, 247.136 112.537, 245.057 113.474 C 241.391 115.128, 240.983 115.100, 231.404 112.550 C 219.325 109.336, 217 107.951, 217 103.977 C 217 101.729, 216.572 101.051, 215.250 101.209 C 214.287 101.324, 209.113 101.566, 203.752 101.745 M 261.743 135.612 C 255.222 142.112, 253.575 144.486, 250.469 151.862 C 248.468 156.613, 246.591 161.928, 246.297 163.673 C 245.709 167.167, 247.653 176.667, 249.144 177.589 C 249.662 177.909, 251.649 176.979, 253.560 175.522 C 255.470 174.065, 258.983 172.010, 261.367 170.956 L 265.700 169.039 266.403 155.270 C 266.789 147.696, 267.686 138.463, 268.396 134.750 C 269.106 131.037, 269.618 128, 269.533 128 C 269.449 128, 265.943 131.425, 261.743 135.612 M 238.507 152.742 C 234.464 159.180, 234.456 159.214, 237.099 158.834 C 238.886 158.577, 239.718 157.468, 240.715 154.014 C 242.556 147.635, 241.938 147.279, 238.507 152.742 M 177 163.309 C 177 164.029, 177.669 165.491, 178.486 166.559 C 179.846 168.335, 179.880 168.223, 178.888 165.250 C 177.756 161.857, 177 161.079, 177 163.309 M 196.735 162.952 C 187.075 163.760, 185.907 164.803, 184.853 173.561 C 184.205 178.937, 184.370 180.802, 185.716 183.351 L 187.378 186.500 188.486 182.653 C 189.096 180.537, 190.248 178.445, 191.047 178.002 C 191.846 177.560, 198.872 176.873, 206.661 176.476 L 220.821 175.753 225.780 180.391 L 230.739 185.029 236.119 182.524 C 239.079 181.147, 242.287 180.015, 243.250 180.010 C 245.383 179.998, 245.402 179.678, 243.492 175.984 C 242.662 174.379, 241.888 171.914, 241.771 170.505 C 241.571 168.082, 241.330 167.978, 237.341 168.576 C 233.408 169.166, 232.907 168.964, 229.958 165.604 L 226.793 162 215.646 162.151 C 209.516 162.234, 201.006 162.594, 196.735 162.952 M 278.066 180.098 C 272.328 185.525, 267.861 190.194, 268.140 190.473 C 269.163 191.496, 279.003 185.761, 282.886 181.879 C 286.313 178.452, 289.947 171.547, 288.850 170.548 C 288.657 170.372, 283.805 174.670, 278.066 180.098 M 309.926 182.750 C 306.180 188.621, 301.726 197.832, 298.539 206.301 L 296.120 212.727 303.810 215.390 C 308.039 216.855, 312.099 218.154, 312.832 218.277 C 313.627 218.410, 315.082 216.082, 316.442 212.500 C 319.286 205.015, 324.964 193.735, 328.467 188.613 C 329.942 186.457, 330.745 184.345, 330.270 183.870 C 328.985 182.585, 316.891 178, 314.788 178 C 313.694 178, 311.735 179.914, 309.926 182.750 M 277 191.580 C 272.325 194.751, 266.564 199.033, 264.197 201.095 C 261.831 203.158, 255.981 206.927, 251.197 209.473 L 242.500 214.100 247.239 213.491 C 249.845 213.155, 255.773 211.598, 260.411 210.030 C 265.050 208.462, 269.105 207.439, 269.423 207.756 C 272.443 210.776, 264.259 216.734, 250.516 221.519 C 245.142 223.391, 240.502 225.164, 240.206 225.461 C 237.367 228.300, 267.277 221.508, 274.762 217.615 C 278.666 215.584, 281.903 211.831, 282.224 208.963 C 282.515 206.367, 282.469 206.358, 275.750 207.684 C 271.663 208.491, 272.377 206.708, 278.040 201.967 C 283.893 197.066, 286.242 193.098, 285.809 188.843 L 285.500 185.814 277 191.580 M 336.835 190.750 C 331.285 197.336, 320.838 220.280, 322.618 221.976 C 324.982 224.230, 337.236 230.153, 337.934 229.380 C 338.371 228.896, 339.260 226.307, 339.909 223.627 C 341.383 217.546, 344.992 210.303, 350.484 202.401 L 354.722 196.301 347.345 192.651 C 338.831 188.438, 338.790 188.430, 336.835 190.750 M 161.677 196.101 C 157.339 198.339, 155.494 199.968, 154.443 202.483 C 152.869 206.250, 150.343 224.676, 151.273 225.606 C 151.600 225.934, 155.160 225.143, 159.184 223.851 L 166.500 221.500 167.121 210 C 167.462 203.675, 168.073 197.262, 168.479 195.750 C 169.393 192.343, 168.911 192.368, 161.677 196.101 M 385.500 212.945 C 384.400 213.396, 382.734 214.617, 381.797 215.659 C 378.762 219.036, 374.821 228.961, 374.658 233.638 L 374.500 238.196 381 239.855 C 400.745 244.893, 414.574 262.489, 421.981 292 C 423.154 296.675, 424.850 301.063, 425.748 301.750 C 426.808 302.561, 430.954 303, 437.552 303 C 450.671 303, 457 302.137, 457 300.350 C 457 299.591, 454.809 292.324, 452.131 284.201 C 440.898 250.126, 425.654 228.237, 406.139 218.164 C 400.260 215.130, 389.385 211.532, 387.701 212.063 C 387.590 212.098, 386.600 212.495, 385.500 212.945 M 355.750 216.080 C 354.717 216.682, 354 218.293, 354 220.015 C 354 225.425, 360.249 226.141, 362.977 221.043 C 364.302 218.566, 364.285 218.428, 362.429 216.571 C 360.634 214.776, 358.285 214.604, 355.750 216.080 M 288.500 221.013 C 282.718 224.866, 259.615 232.342, 243.806 235.476 C 241.854 235.863, 239.687 238.073, 235.932 243.505 L 230.750 251 224.625 251.011 C 221.256 251.017, 216.925 251.269, 215 251.571 C 211.562 252.110, 211.458 252.022, 209.170 246.659 C 205.579 238.242, 203.925 237.187, 189.309 233.994 C 182.241 232.449, 174.798 230.395, 172.769 229.427 C 169.191 227.721, 168.849 227.735, 161.290 229.903 C 150.587 232.973, 139.074 238.778, 129.156 246.106 C 121.213 251.975, 120.842 252.421, 121.423 255.386 C 124.401 270.598, 122.951 280.262, 113.607 307.456 L 107.289 325.846 115.241 335.423 C 119.615 340.690, 123.755 345, 124.442 345 C 125.128 345, 126.505 344.100, 127.500 343 C 129.518 340.770, 133.666 340.423, 136.087 342.282 C 140.573 345.726, 141.221 352.395, 137.500 356.818 C 136.125 358.452, 135 360.066, 135 360.404 C 135 360.742, 137.403 364.277, 140.340 368.260 C 143.277 372.242, 148.295 379.438, 151.490 384.250 C 154.686 389.063, 157.910 393, 158.655 393 C 159.400 393, 163.270 390.159, 167.255 386.686 L 174.500 380.372 180.500 383.067 C 183.800 384.550, 190.544 386.772, 195.487 388.005 C 203.226 389.937, 206.213 390.176, 216.987 389.724 C 231.013 389.137, 240.845 386.934, 253.109 381.632 L 260.901 378.263 269.700 384.707 C 284.005 395.183, 282.914 395.010, 288.631 387.714 C 291.309 384.297, 297.212 377.072, 301.750 371.659 C 306.288 366.246, 310 361.478, 310 361.064 C 310 360.649, 309.054 359.454, 307.898 358.407 C 302.226 353.275, 301.927 346.922, 307.150 342.527 C 311.532 338.840, 317.012 339.037, 320.347 343 C 321.735 344.650, 323.320 346, 323.869 346 C 324.418 346, 329.624 341.387, 335.437 335.750 L 346.007 325.500 341.945 317 C 336.512 305.631, 332.716 294.634, 329.967 282.304 L 327.693 272.107 330.437 260.496 C 332.952 249.854, 333.361 248.910, 335.340 249.192 C 338.108 249.587, 338.043 251.832, 334.938 263.163 L 332.564 271.826 334.931 281.663 C 338.975 298.468, 348.131 322, 350.627 322 C 351.260 322, 352.746 321.212, 353.928 320.250 L 356.078 318.500 350.681 307.890 C 344.032 294.817, 341.616 285.588, 341.550 273 C 341.511 265.613, 342.026 261.894, 343.866 256.280 C 346.648 247.790, 346.247 245.036, 341.742 241.662 C 336.089 237.429, 307.776 223.252, 300.645 221.084 C 292.269 218.538, 292.214 218.537, 288.500 221.013 M 95.500 226.409 C 81.367 229.911, 71.086 239.834, 73.905 247.251 C 75.204 250.667, 76.753 250.997, 81.542 248.878 C 83.766 247.895, 87.405 246.799, 89.630 246.443 C 93.491 245.826, 93.732 245.572, 94.945 240.839 C 95.644 238.112, 97.742 233.613, 99.608 230.840 C 101.473 228.067, 103 225.619, 103 225.400 C 103 224.782, 100.952 225.058, 95.500 226.409 M 295.230 228.551 C 290.087 232.154, 290.034 238.119, 295.129 239.895 C 302.628 242.509, 308.952 233.619, 303.014 228.810 C 300.275 226.592, 298.129 226.521, 295.230 228.551 M 151.114 238.750 C 149.955 239.713, 148.738 241.889, 148.411 243.586 C 147.243 249.640, 153.864 252.227, 158.545 247.545 C 164.718 241.373, 157.807 233.193, 151.114 238.750 M 373.658 245.744 C 373.332 246.271, 374.963 247.271, 377.283 247.964 C 394.291 253.050, 407.460 268.815, 411.562 289 C 412.937 295.767, 414.757 299, 417.191 299 C 418.530 299, 418.130 296.517, 415.390 287.802 C 409.205 268.130, 399.717 254.944, 387.173 248.588 C 381.578 245.752, 374.565 244.277, 373.658 245.744 M 85.489 253.499 C 72.447 259.814, 62 278.542, 62 295.605 C 62 299.868, 62.423 303, 63 303 C 63.584 303, 64 299.656, 64 294.968 C 64 289.509, 64.659 284.982, 66.057 280.832 C 69.842 269.594, 78.697 258.236, 86.959 254.021 C 89.181 252.887, 91 251.743, 91 251.480 C 91 250.819, 91.101 250.782, 85.489 253.499 M 351.114 261.264 C 347.244 269.260, 348.614 284.205, 354.400 297.099 C 355.733 300.070, 357.575 303.400, 358.494 304.500 L 360.163 306.500 359.439 304.500 C 350.943 281.056, 349.428 272.044, 352.385 262.547 C 354.354 256.221, 353.818 255.679, 351.114 261.264 M 114.764 263 C 114.359 264.375, 114.021 267.679, 114.014 270.343 C 113.985 280.678, 108.843 299.711, 101.613 316.250 C 100.711 318.313, 100.376 320, 100.867 320 C 102.181 320, 111.741 294.250, 114.074 284.423 C 115.421 278.755, 115.987 273.414, 115.792 268.232 C 115.592 262.947, 115.267 261.291, 114.764 263 M 209.618 263.112 C 202.833 264.705, 193.281 269.890, 187.648 275.039 C 173.966 287.543, 167.513 306.771, 171.419 323.397 C 174.807 337.819, 184.125 349.983, 196.424 356.037 C 202.008 358.786, 204.423 359.353, 212.305 359.765 C 228.832 360.630, 239.452 356.774, 250 346.079 C 261.481 334.438, 266.497 321.916, 265.826 306.571 C 265.476 298.565, 264.969 296.467, 261.741 289.670 C 255.453 276.428, 244.420 266.795, 231.650 263.395 C 225.893 261.862, 215.511 261.729, 209.618 263.112 M 216.250 273.689 C 217.213 273.941, 218.787 273.941, 219.750 273.689 C 220.713 273.438, 219.925 273.232, 218 273.232 C 216.075 273.232, 215.287 273.438, 216.250 273.689 M 210.750 274.662 C 211.438 274.940, 212.563 274.940, 213.250 274.662 C 213.938 274.385, 213.375 274.158, 212 274.158 C 210.625 274.158, 210.063 274.385, 210.750 274.662 M 222.750 274.662 C 223.438 274.940, 224.563 274.940, 225.250 274.662 C 225.938 274.385, 225.375 274.158, 224 274.158 C 222.625 274.158, 222.063 274.385, 222.750 274.662 M 212.952 280.118 C 211 280.660, 208.075 282.186, 206.452 283.510 L 203.500 285.916 207.904 283.778 C 213.104 281.252, 221.639 280.330, 225.940 281.829 C 227.623 282.416, 229 282.500, 229 282.015 C 229 280.023, 217.983 278.720, 212.952 280.118 M 213.994 284.896 C 206.465 287.300, 198.948 293.221, 195.941 299.115 C 190.546 309.690, 196.171 327.449, 206.384 332.087 C 211.470 334.396, 220.697 334.570, 225.782 332.451 C 229.993 330.697, 236.478 324.808, 238.555 320.852 C 240.825 316.530, 242.123 309.003, 241.414 304.274 C 239.588 292.100, 224.601 281.509, 213.994 284.896 M 244.724 293.250 C 247.153 297.874, 247.478 299.574, 247.447 307.500 C 247.391 322.462, 241.393 333.161, 230.156 338.343 C 223.430 341.444, 209.240 341.414, 203.372 338.285 C 197.679 335.249, 191.480 327.890, 188.936 321.147 C 185.924 313.161, 186.522 301.694, 190.349 294.099 C 191.845 291.128, 192.428 289.230, 191.644 289.880 C 188.742 292.289, 185.686 301.416, 185.243 309 C 184.893 314.980, 185.236 317.644, 186.935 322.147 C 189.634 329.297, 195.788 336.326, 202.377 339.783 C 206.769 342.089, 208.712 342.472, 216 342.473 C 223.331 342.473, 225.310 342.078, 230.388 339.599 C 242.499 333.686, 249.015 323.490, 249.799 309.228 C 250.224 301.487, 250.048 300.541, 247.064 294.478 C 245.310 290.915, 243.445 288, 242.920 288 C 242.396 288, 243.207 290.363, 244.724 293.250 M 367.794 319.539 C 367.282 320.051, 371.127 330.461, 372.239 331.572 C 373.090 332.423, 371.822 322.666, 370.833 320.750 C 369.924 318.990, 368.794 318.539, 367.794 319.539 M 348.903 332.141 C 337.780 342.114, 308.154 373.741, 296.578 388 L 288.054 398.500 291.239 401.250 C 292.991 402.762, 294.666 403.984, 294.962 403.965 C 295.258 403.945, 298.727 399.558, 302.671 394.215 C 317.700 373.855, 339.806 349.603, 355.929 335.787 C 362.342 330.292, 362.355 330.270, 361.058 327.139 C 360.342 325.413, 359.358 324, 358.870 324 C 358.382 324, 353.897 327.664, 348.903 332.141 M 98.637 328.504 C 97.399 331.731, 98.062 333.188, 103.951 340.185 C 109.421 346.683, 135.033 382.078, 144.838 396.688 C 149.914 404.252, 150.679 404.766, 153.166 402.278 C 155.118 400.326, 155.074 400.236, 145.907 387.407 C 134.738 371.778, 128.109 362.994, 113.148 344 C 98.685 325.639, 99.431 326.435, 98.637 328.504 M 427.345 339.412 C 425.610 340.188, 423.905 341.724, 423.556 342.824 C 423.207 343.925, 424.103 349.477, 425.549 355.162 C 426.994 360.848, 430.546 376.061, 433.442 388.969 C 439.098 414.183, 439.453 414.949, 446.206 416.552 C 448.510 417.099, 449.225 416.698, 451.024 413.847 C 452.861 410.938, 453.071 409.453, 452.630 402.500 C 451.961 391.961, 440.556 343.117, 438.217 340.774 C 435.791 338.346, 431.055 337.752, 427.345 339.412 M 448.406 345.384 C 448.114 346.145, 449.446 353.908, 451.366 362.634 C 453.286 371.360, 455.616 382.017, 456.544 386.316 L 458.230 394.132 460.615 391.892 C 463.753 388.944, 463.681 386.245, 459.984 368.211 C 456.523 351.325, 455.425 347.568, 453.348 345.491 C 451.478 343.621, 449.102 343.569, 448.406 345.384 M 311.307 348.093 C 309.574 349.826, 310.893 352, 313.677 352 C 315.655 352, 316.076 351.560, 315.820 349.760 C 315.460 347.241, 313.050 346.350, 311.307 348.093 M 408.853 350.993 C 406.956 352.890, 406.057 354.629, 406.399 355.743 C 406.694 356.709, 408.796 366.050, 411.070 376.500 C 413.343 386.950, 415.606 396.256, 416.099 397.180 C 416.943 398.763, 431.063 409.270, 431.610 408.723 C 432.085 408.248, 417.991 352.513, 416.823 350.250 C 415.232 347.167, 412.417 347.430, 408.853 350.993 M 130 350.500 C 130 351.325, 130.450 352, 131 352 C 131.550 352, 132 351.325, 132 350.500 C 132 349.675, 131.550 349, 131 349 C 130.450 349, 130 349.675, 130 350.500 M 75.200 358.200 C 74.540 358.860, 74 359.877, 74 360.460 C 74 361.043, 70.850 371.059, 67 382.717 C 63.150 394.376, 60 405.204, 60 406.779 C 60 409.920, 62.702 418.759, 64.274 420.762 C 66.734 423.895, 69.258 418.128, 78.834 387.500 C 86.895 361.721, 86.623 363.470, 83.108 359.954 C 79.987 356.833, 77.188 356.212, 75.200 358.200 M 248.573 407.159 C 233.661 415.021, 211.346 416.530, 192.542 410.948 L 184.910 408.682 180.955 412.544 C 178.780 414.668, 177 416.957, 177 417.630 C 177 419.674, 184.045 424.876, 192.500 429.075 C 207.090 436.321, 224.554 436.706, 241.426 430.155 C 249.249 427.117, 266 416.648, 266 414.797 C 266 414.205, 265.212 413.083, 264.250 412.304 C 261.482 410.065, 253.665 404.995, 253.054 405.044 C 252.749 405.069, 250.733 406.020, 248.573 407.159 M 268.997 426.690 C 264.633 431.053, 254.886 438.058, 249.169 440.940 C 241.026 445.045, 230.421 447.155, 217.500 447.242 C 210.900 447.286, 203.250 446.777, 200.500 446.111 C 193.087 444.317, 182.143 438.593, 176.222 433.413 C 173.350 430.901, 171 429.153, 171 429.529 C 171 429.905, 171.743 434.328, 172.651 439.357 C 174.177 447.808, 174.601 448.780, 178.255 452.193 C 183.220 456.830, 195.878 463.473, 203.564 465.475 C 211.098 467.437, 227.554 467.425, 236 465.451 C 245.110 463.322, 256.946 457.208, 267.500 449.180 L 276.500 442.333 277.748 434.916 C 278.886 428.153, 278.842 427.383, 277.248 426.177 C 273.167 423.087, 272.564 423.125, 268.997 426.690 M 441 437.449 C 441 437.719, 444.488 440.228, 448.750 443.026 C 455.704 447.591, 456.089 447.739, 452.500 444.464 C 448.794 441.083, 441 436.329, 441 437.449 M 270.528 459.712 C 259.597 469.638, 247.913 476.064, 236.335 478.517 C 228.193 480.242, 211.206 480.439, 203.799 478.895 C 196.684 477.411, 187.449 472.943, 182.202 468.446 C 179.838 466.420, 177.709 464.958, 177.470 465.197 C 176.650 466.017, 180.131 483.500, 181.551 485.693 C 183.387 488.528, 194.695 494.867, 203 497.717 C 211 500.463, 224.641 500.760, 235.303 498.421 C 244.229 496.462, 260.672 488.572, 268.032 482.715 L 273.564 478.313 274.819 467.027 C 275.509 460.820, 275.945 455.618, 275.787 455.469 C 275.629 455.319, 273.262 457.229, 270.528 459.712" stroke="none" fill="black" fill-rule="evenodd"/>
</svg>